<svg xmlns="http://www.w3.org/2000/svg" viewBox="0 0 24 24" width="28" height="28" fill="#e7e9ee">
  <path d="M16.365 1.43c0 1.14-.42 2.05-1.26 2.73-.86.7-1.86 1.06-2.98.98-.06-1.1.4-2.06 1.24-2.78.83-.7 1.85-1.09 3-.93zM19.9 17.3c-.3.7-.65 1.35-1.05 1.95-1.06 1.55-2.13 3.1-3.83 3.13-1.66.03-2.2-.98-4.1-.98-1.9 0-2.5.95-4.07.98-1.65.03-2.9-1.68-3.97-3.22C1.03 16.4-.4 11.5 1.3 8.14c.85-1.68 2.36-2.74 4-2.76 1.6-.03 3.1 1.08 4.07 1.08.97 0 2.8-1.34 4.72-1.14.8.03 3.06.32 4.5 2.44-.12.08-2.68 1.56-2.65 4.66.03 3.7 3.24 4.94 3.27 4.96-.03.08-.5 1.75-1.65 3.44l-.62.98z"/>
</svg>
