<svg xmlns="http://www.w3.org/2000/svg" viewBox="0 0 24 24" width="28" height="28" fill="#e7e9ee">
  <path d="M12.5 2c-.5 1.4-1.1 2.5-2 3.6-.9 1-1.3 2-1.3 3.3 0 .5.1 1 .2 1.4-1 .6-1.7 1.7-2 2.9-.5 0-1 .1-1.4.3C4.6 14 4 15.4 4 17c0 .5.1 1 .2 1.4-.6.4-1 1-1 1.8 0 1.2 1 2.1 2.2 2.1.6 0 1.1-.2 1.5-.6.6.4 1.4.6 2.1.6.9 0 1.7-.3 2.4-.8.6.3 1.3.5 2 .5s1.4-.2 2-.5c.7.5 1.5.8 2.4.8.7 0 1.5-.2 2.1-.6.4.4.9.6 1.5.6 1.2 0 2.2-.9 2.2-2.1 0-.7-.4-1.4-1-1.8.1-.4.2-.9.2-1.4 0-1.6-.6-3-1.8-3.8-.4-.2-.9-.3-1.4-.3-.3-1.2-1-2.3-2-2.9.1-.4.2-.9.2-1.4 0-1.3-.4-2.3-1.3-3.3-.9-1.1-1.5-2.2-2-3.6-.2.2-.3.5-.5.7-.2-.2-.3-.5-.5-.7z"/>
</svg>
