<svg xmlns="http://www.w3.org/2000/svg" viewBox="0 0 640 760" width="640" height="760">
  <rect width="640" height="760" rx="28" fill="#25272d"/>
  <rect x="1" y="1" width="638" height="758" rx="27" fill="none" stroke="#3b3e47" stroke-width="2"/>
  <g font-family="-apple-system,BlinkMacSystemFont,'PingFang SC',sans-serif">
    <text x="28" y="48" fill="#f3f4f6" font-size="22" font-weight="700">2011 北京卷 · 官网演示题库</text>
    <text x="500" y="48" fill="#a7acb7" font-size="20">☰　↙　⌖　×</text>
    <text x="28" y="92" fill="#c7cad2" font-size="18">第 15 / 135 题 · 已作答 1 题</text>
    <rect x="22" y="122" width="596" height="94" rx="16" fill="#30333a"/>
    <text x="42" y="161" fill="#f2f3f5" font-size="20">在我国，各级人民检察院属于：</text>
    <text x="42" y="195" fill="#aeb3bd" font-size="16">题干保持为文字，不使用整页截图</text>
    <g font-size="20" fill="#f2f3f5">
      <rect x="22" y="244" width="596" height="62" rx="15" fill="#30333a"/><circle cx="53" cy="275" r="18" fill="#7d818c" fill-opacity=".4"/><text x="46" y="282">A</text><text x="88" y="282">立法机关</text>
      <rect x="22" y="320" width="596" height="62" rx="15" fill="#30333a"/><circle cx="53" cy="351" r="18" fill="#7d818c" fill-opacity=".4"/><text x="46" y="358">B</text><text x="88" y="358">执法机关</text>
      <rect x="22" y="396" width="596" height="62" rx="15" fill="#30333a"/><circle cx="53" cy="427" r="18" fill="#7d818c" fill-opacity=".4"/><text x="46" y="434">C</text><text x="88" y="434">司法机关</text>
      <rect x="22" y="472" width="596" height="62" rx="15" fill="#4b4568" stroke="#8f83ff" stroke-width="2"/><circle cx="53" cy="503" r="18" fill="#8f83ff" fill-opacity=".4"/><text x="46" y="510">D</text><text x="88" y="510">法律监督机关</text>
    </g>
    <path d="M58 660l-12 12 12 12" fill="none" stroke="#c4c8d0" stroke-width="4" stroke-linecap="round" stroke-linejoin="round"/>
    <path d="M103 660l12 12-12 12" fill="none" stroke="#c4c8d0" stroke-width="4" stroke-linecap="round" stroke-linejoin="round"/>
    <path d="M146 657h18l7 7v24h-25zM164 657v8h7M152 672h13M152 679h13" fill="none" stroke="#c4c8d0" stroke-width="3" stroke-linecap="round" stroke-linejoin="round"/>
    <path d="M574 658h22v29h-22zM580 667h10M580 675h10" fill="none" stroke="#c4c8d0" stroke-width="3" stroke-linecap="round" stroke-linejoin="round"/>
    <text x="320" y="726" fill="#8e94a1" font-size="15" text-anchor="middle">底栏图标放大 · 试卷按钮打开选题清单</text>
  </g>
</svg>
